# xmcd
#
# Track frame offsets:
#	150
#	16305
#	33917
#	57207
#	72502
#	91617
#	109302
#	126935
#	145665
#
# Disc length: 2158 seconds
#
# Revision: 5
# Processed by: cddbd v1.5.2PL0 Copyright (c) Steve Scherf et al.
# Submitted via: EasyCDDAExtractor 10.2.0.1
#
DISCID=74086c09
DTITLE=이승철 - The Bridge of Sonic Heaven
DYEAR=1900
DGENRE=Blues
TTITLE0=오늘도 난
TTITLE1=비애
TTITLE2=다시 날 그리워 할쯤엔
TTITLE3=나 이제는
TTITLE4=널 닮은 하늘에게
TTITLE5=나의 하루
TTITLE6=사실은
TTITLE7=나의 고백
TTITLE8=오늘도 난 (Club Mix)
EXTD=
EXTT0=
EXTT1=
EXTT2=
EXTT3=
EXTT4=
EXTT5=
EXTT6=
EXTT7=
EXTT8=
PLAYORDER=
